<svg height="512pt" viewBox="0 0 512 512" width="512pt" xmlns="http://www.w3.org/2000/svg"><path d="m256 512c-65.65625 0-127.5625-6.945312-174.320312-19.554688-54.199219-14.621093-81.679688-34.957031-81.679688-60.445312s27.480469-45.824219 81.679688-60.445312c46.757812-12.609376 108.664062-19.554688 174.320312-19.554688s127.5625 6.945312 174.320312 19.554688c54.199219 14.621093 81.679688 34.957031 81.679688 60.445312s-27.480469 45.824219-81.679688 60.445312c-46.757812 12.609376-108.664062 19.554688-174.320312 19.554688zm0 0" fill="#b7e4f8"/><path d="m430.320312 371.554688c-46.757812-12.609376-108.664062-19.554688-174.320312-19.554688v160c65.65625 0 127.5625-6.945312 174.320312-19.554688 54.199219-14.621093 81.679688-34.957031 81.679688-60.445312s-27.480469-45.824219-81.679688-60.445312zm0 0" fill="#6fc8f1"/><path d="m256 436.8125-102.03125-190.8125h204.0625zm0 0" fill="#ff7b01"/><path d="m256 436.8125 102.03125-190.8125h-102.03125zm0 0" fill="#ff4f18"/><path d="m256 300c-82.710938 0-150-67.289062-150-150s67.289062-150 150-150 150 67.289062 150 150-67.289062 150-150 150zm0 0" fill="#ffe565"/><path d="m256 0v300c82.710938 0 150-67.289062 150-150s-67.289062-150-150-150zm0 0" fill="#ffd400"/><path d="m256 210c-33.085938 0-60-26.914062-60-60s26.914062-60 60-60 60 26.914062 60 60-26.914062 60-60 60zm0 0" fill="#ffab2d"/><path d="m316 150c0-33.085938-26.914062-60-60-60v120c33.085938 0 60-26.914062 60-60zm0 0" fill="#f90"/></svg>